<svg width="92" height="24" viewBox="0 0 92 24" fill="none" xmlns="http://www.w3.org/2000/svg">
<g clip-path="url(#clip0_1080_28)">
<path d="M21.16 1H1.84C1.37537 1 1 1.37537 1 1.84V21.16C1 21.6246 1.37537 22 1.84 22H21.16C21.6246 22 22 21.6246 22 21.16V1.84C22 1.37537 21.6246 1 21.16 1ZM18.7345 7.12937H17.0571C15.742 7.12937 15.4874 7.75412 15.4874 8.67287V10.6967H18.6269L18.2174 13.8651H15.4874V22H12.214V13.8678H9.47612V10.6967H12.214V8.3605C12.214 5.64887 13.8704 4.171 16.2906 4.171C17.4509 4.171 18.4457 4.25763 18.7371 4.297V7.12937H18.7345Z" fill="#295C7A"/>
<path d="M45.9973 6.11248C43.1579 6.11248 40.8664 8.51861 40.8664 11.5C40.8664 14.4814 43.1579 16.8875 45.9973 16.8875C48.8367 16.8875 51.1282 14.4814 51.1282 11.5C51.1282 8.51861 48.8367 6.11248 45.9973 6.11248ZM45.9973 15.0015C44.1611 15.0015 42.6626 13.4281 42.6626 11.5C42.6626 9.57195 44.1611 7.99851 45.9973 7.99851C47.8335 7.99851 49.332 9.57195 49.332 11.5C49.332 13.4281 47.8335 15.0015 45.9973 15.0015ZM51.3383 4.63624C50.6754 4.63624 50.14 5.19837 50.14 5.89446C50.14 6.59056 50.6754 7.15269 51.3383 7.15269C52.0013 7.15269 52.5366 6.59318 52.5366 5.89446C52.5368 5.72917 52.5059 5.56546 52.4458 5.41272C52.3856 5.25997 52.2974 5.12118 52.1861 5.0043C52.0748 4.88742 51.9426 4.79475 51.7971 4.73159C51.6516 4.66843 51.4957 4.63603 51.3383 4.63624ZM55.9989 11.5C55.9989 10.05 56.0114 8.61317 55.9338 7.16582C55.8563 5.48469 55.4911 3.99268 54.3203 2.76335C53.147 1.53139 51.7286 1.15051 50.1275 1.06908C48.7466 0.987647 47.3782 1.00078 45.9998 1.00078C44.6189 1.00078 43.2505 0.987647 41.8721 1.06908C40.271 1.15051 38.8501 1.53402 37.6793 2.76335C36.5061 3.9953 36.1433 5.48469 36.0658 7.16582C35.9882 8.6158 36.0007 10.0526 36.0007 11.5C36.0007 12.9474 35.9882 14.3868 36.0658 15.8342C36.1433 17.5153 36.5086 19.0073 37.6793 20.2367C38.8526 21.4686 40.271 21.8495 41.8721 21.9309C43.253 22.0124 44.6214 21.9992 45.9998 21.9992C47.3807 21.9992 48.7491 22.0124 50.1275 21.9309C51.7286 21.8495 53.1495 21.466 54.3203 20.2367C55.4936 19.0047 55.8563 17.5153 55.9338 15.8342C56.0139 14.3868 55.9989 12.95 55.9989 11.5ZM53.7974 17.6939C53.6148 18.172 53.3947 18.5292 53.0419 18.897C52.6892 19.2674 52.3515 19.4985 51.8962 19.6903C50.5803 20.2393 47.4558 20.1158 45.9973 20.1158C44.5389 20.1158 41.4118 20.2393 40.0959 19.6929C39.6406 19.5012 39.3004 19.27 38.9502 18.8996C38.5975 18.5292 38.3773 18.1746 38.1947 17.6966C37.6743 16.3123 37.7919 13.0314 37.7919 11.5C37.7919 9.96859 37.6743 6.68512 38.1947 5.30344C38.3773 4.82537 38.5975 4.46812 38.9502 4.10038C39.3029 3.73263 39.6406 3.49884 40.0959 3.30709C41.4118 2.76072 44.5389 2.88418 45.9973 2.88418C47.4558 2.88418 50.5828 2.76072 51.8987 3.30709C52.354 3.49884 52.6942 3.73 53.0444 4.10038C53.3972 4.47075 53.6173 4.82537 53.7999 5.30344C54.3203 6.68512 54.2027 9.96859 54.2027 11.5C54.2027 13.0314 54.3203 16.3123 53.7974 17.6939Z" fill="#295C7A"/>
<path d="M90 5.01939C89.2277 5.35134 88.3873 5.59025 87.5217 5.68329C88.4204 5.15125 89.0934 4.31072 89.4145 3.31939C88.5711 3.8193 87.6473 4.16985 86.6838 4.35548C86.2811 3.92653 85.7941 3.5848 85.2531 3.3516C84.7121 3.11839 84.1287 2.99871 83.5392 3.00001C81.1543 3.00001 79.2363 4.92634 79.2363 7.29024C79.2363 7.6222 79.2767 7.95415 79.3423 8.27353C75.7712 8.08743 72.5862 6.38743 70.4688 3.78463C70.083 4.44128 69.8808 5.18895 69.8833 5.94986C69.8833 7.43862 70.643 8.75134 71.8013 9.52338C71.1187 9.49659 70.452 9.30962 69.8555 8.97767V9.03048C69.8555 11.1152 71.3345 12.8429 73.3055 13.2402C72.9354 13.336 72.5547 13.385 72.1723 13.3861C71.8922 13.3861 71.6272 13.3584 71.3597 13.3207C71.9048 15.0207 73.4922 16.2555 75.3825 16.2957C73.9036 17.45 72.0512 18.129 70.0398 18.129C69.6789 18.129 69.3458 18.1164 69 18.0762C70.9079 19.2959 73.1717 20 75.6097 20C83.5241 20 87.8548 13.4666 87.8548 7.79572C87.8548 7.60962 87.8548 7.42353 87.8422 7.23743C88.6801 6.62634 89.4145 5.86939 90 5.01939Z" fill="#295C7A"/>
</g>
<defs>
<clipPath id="clip0_1080_28">
<rect width="92" height="24" fill="white"/>
</clipPath>
</defs>
</svg>
