<svg width="157" height="24" viewBox="0 0 157 24" fill="none" xmlns="http://www.w3.org/2000/svg">
<g clip-path="url(#clip0_964_14831)">
<g clip-path="url(#clip1_964_14831)">
<path d="M23.54 0H1.46C0.929 0 0.5 0.429 0.5 0.96V23.04C0.5 23.571 0.929 24 1.46 24H23.54C24.071 24 24.5 23.571 24.5 23.04V0.96C24.5 0.429 24.071 0 23.54 0ZM20.768 7.005H18.851C17.348 7.005 17.057 7.719 17.057 8.769V11.082H20.645L20.177 14.703H17.057V24H13.316V14.706H10.187V11.082H13.316V8.412C13.316 5.313 15.209 3.624 17.975 3.624C19.301 3.624 20.438 3.723 20.771 3.768V7.005H20.768Z" fill="#335BF5"/>
</g>
<g clip-path="url(#clip2_964_14831)">
<path d="M56.5016 5.84744C53.0966 5.84744 50.3486 8.59544 50.3486 12.0004C50.3486 15.4054 53.0966 18.1534 56.5016 18.1534C59.9066 18.1534 62.6546 15.4054 62.6546 12.0004C62.6546 8.59544 59.9066 5.84744 56.5016 5.84744ZM56.5016 15.9994C54.2996 15.9994 52.5026 14.2024 52.5026 12.0004C52.5026 9.79844 54.2996 8.00144 56.5016 8.00144C58.7036 8.00144 60.5006 9.79844 60.5006 12.0004C60.5006 14.2024 58.7036 15.9994 56.5016 15.9994ZM62.9066 4.16144C62.1116 4.16144 61.4696 4.80344 61.4696 5.59844C61.4696 6.39344 62.1116 7.03544 62.9066 7.03544C63.7016 7.03544 64.3436 6.39644 64.3436 5.59844C64.3438 5.40966 64.3068 5.22269 64.2347 5.04824C64.1625 4.87379 64.0567 4.71528 63.9232 4.5818C63.7897 4.44831 63.6312 4.34247 63.4568 4.27034C63.2823 4.19821 63.0954 4.1612 62.9066 4.16144ZM68.4956 12.0004C68.4956 10.3444 68.5106 8.70344 68.4176 7.05044C68.3246 5.13044 67.8866 3.42644 66.4826 2.02244C65.0756 0.615437 63.3746 0.180437 61.4546 0.0874372C59.7986 -0.00556279 58.1576 0.00943725 56.5046 0.00943725C54.8486 0.00943725 53.2076 -0.00556279 51.5546 0.0874372C49.6346 0.180437 47.9306 0.618437 46.5266 2.02244C45.1196 3.42944 44.6846 5.13044 44.5916 7.05044C44.4986 8.70644 44.5136 10.3474 44.5136 12.0004C44.5136 13.6534 44.4986 15.2974 44.5916 16.9504C44.6846 18.8704 45.1226 20.5744 46.5266 21.9784C47.9336 23.3854 49.6346 23.8204 51.5546 23.9134C53.2106 24.0064 54.8516 23.9914 56.5046 23.9914C58.1606 23.9914 59.8016 24.0064 61.4546 23.9134C63.3746 23.8204 65.0786 23.3824 66.4826 21.9784C67.8896 20.5714 68.3246 18.8704 68.4176 16.9504C68.5136 15.2974 68.4956 13.6564 68.4956 12.0004ZM65.8556 19.0744C65.6366 19.6204 65.3726 20.0284 64.9496 20.4484C64.5266 20.8714 64.1216 21.1354 63.5756 21.3544C61.9976 21.9814 58.2506 21.8404 56.5016 21.8404C54.7526 21.8404 51.0026 21.9814 49.4246 21.3574C48.8786 21.1384 48.4706 20.8744 48.0506 20.4514C47.6276 20.0284 47.3636 19.6234 47.1446 19.0774C46.5206 17.4964 46.6616 13.7494 46.6616 12.0004C46.6616 10.2514 46.5206 6.50144 47.1446 4.92344C47.3636 4.37744 47.6276 3.96944 48.0506 3.54944C48.4736 3.12944 48.8786 2.86244 49.4246 2.64344C51.0026 2.01944 54.7526 2.16044 56.5016 2.16044C58.2506 2.16044 62.0006 2.01944 63.5786 2.64344C64.1246 2.86244 64.5326 3.12644 64.9526 3.54944C65.3756 3.97244 65.6396 4.37744 65.8586 4.92344C66.4826 6.50144 66.3416 10.2514 66.3416 12.0004C66.3416 13.7494 66.4826 17.4964 65.8556 19.0744Z" fill="#E61F5A"/>
</g>
<g clip-path="url(#clip3_964_14831)">
<path d="M112.5 4.46548C111.619 4.85141 110.659 5.12917 109.671 5.23735C110.697 4.61879 111.465 3.64156 111.832 2.48901C110.869 3.07022 109.814 3.47778 108.715 3.6936C108.255 3.19488 107.699 2.79758 107.081 2.52645C106.464 2.25532 105.798 2.11618 105.125 2.11769C102.402 2.11769 100.212 4.3573 100.212 7.10564C100.212 7.49158 100.258 7.87752 100.333 8.24884C96.2565 8.03248 92.6205 6.05601 90.2032 3.0299C89.7627 3.79335 89.5319 4.66261 89.5348 5.54727C89.5348 7.27814 90.402 8.80435 91.7244 9.70195C90.9451 9.6708 90.184 9.45342 89.5031 9.06749V9.12889C89.5031 11.5527 91.1914 13.5613 93.4416 14.0233C93.0191 14.1347 92.5845 14.1916 92.148 14.1929C91.8282 14.1929 91.5256 14.1607 91.2202 14.1168C91.8426 16.0933 93.6548 17.5289 95.8128 17.5757C94.1244 18.9177 92.0097 19.7071 89.7134 19.7071C89.3014 19.7071 88.9211 19.6925 88.5264 19.6457C90.7045 21.0637 93.2889 21.8824 96.0721 21.8824C105.107 21.8824 110.051 14.2864 110.051 7.69332C110.051 7.47696 110.051 7.2606 110.037 7.04424C110.994 6.33377 111.832 5.45371 112.5 4.46548Z" fill="#21A6DF"/>
</g>
<g clip-path="url(#clip4_964_14831)">
<path d="M155.97 5.93166C155.833 5.3987 155.566 4.91276 155.195 4.52249C154.824 4.13221 154.362 3.85129 153.855 3.70783C151.988 3.17664 144.488 3.17664 144.488 3.17664C144.488 3.17664 136.987 3.17664 135.121 3.70783C134.614 3.85129 134.152 4.13221 133.781 4.52249C133.409 4.91276 133.142 5.3987 133.006 5.93166C132.657 7.93335 132.488 9.96501 132.501 11.9999C132.488 14.0348 132.657 16.0665 133.006 18.0682C133.142 18.6012 133.409 19.0871 133.781 19.4774C134.152 19.8676 134.614 20.1486 135.121 20.292C136.987 20.8232 144.488 20.8232 144.488 20.8232C144.488 20.8232 151.988 20.8232 153.855 20.292C154.362 20.1486 154.824 19.8676 155.195 19.4774C155.566 19.0871 155.833 18.6012 155.97 18.0682C156.318 16.0665 156.488 14.0348 156.475 11.9999C156.488 9.96501 156.318 7.93335 155.97 5.93166ZM142.09 15.7813V8.21852L148.315 11.9999L142.09 15.7813Z" fill="#E42F08"/>
</g>
</g>
<defs>
<clipPath id="clip0_964_14831">
<rect width="156" height="24" fill="white" transform="translate(0.5)"/>
</clipPath>
<clipPath id="clip1_964_14831">
<rect width="24" height="24" fill="white" transform="translate(0.5)"/>
</clipPath>
<clipPath id="clip2_964_14831">
<rect width="24" height="24" fill="white" transform="translate(44.5)"/>
</clipPath>
<clipPath id="clip3_964_14831">
<rect width="24" height="19.7647" fill="white" transform="translate(88.5 2.11768)"/>
</clipPath>
<clipPath id="clip4_964_14831">
<rect width="24" height="17.6842" fill="white" transform="translate(132.5 3.15784)"/>
</clipPath>
</defs>
</svg>
